PathFileType	4	(X/Y/Z)	C:/Users/beibeiliu/ov580/test_trc/User2\sequence.35_training_dense_right.trc
DataRate	CameraRate	NumFrames	NumMarkers	Units	OrigDataRate	OrigDataStartFrame	OrigNumFrames
120	120	10	19	mm	120	253	289
Frame#	Time	ThumbCMC			ThumbMCP			ThumbIP			ThumbTip			IndexMCP			IndexPIP			IndexTip			MiddleMCP			MiddlePIP			MiddleTip			RingMCP			RingPIP			RingTip			PinkyMCP			PinkyPIP			PinkyTip			BackHand1			BackHand2			BackHand3	
		X0	Y0	Z0	X1	Y1	Z1	X2	Y2	Z2	X3	Y3	Z3	X4	Y4	Z4	X5	Y5	Z5	X6	Y6	Z6	X7	Y7	Z7	X8	Y8	Z8	X9	Y9	Z9	X10	Y10	Z10	X11	Y11	Z11	X12	Y12	Z12	X13	Y13	Z13	X14	Y14	Z14	X15	Y15	Z15	X16	Y16	Z16	X17	Y17	Z17	X18	Y18	Z18	
252	2.1	99.7322	-74.6702	75.7502	94.163	-73.797	42.2481	71.6456	-72.3189	16.0602	43.6577	-73.0443	13.6896	33.7964	-98.8583	26.1723	16.2686	-69.5844	19.6546	36.2553	-49.8015	45.0348	15.0733	-101.644	35.8496	-1.93616	-70.2391	34.9895	28.4303	-53.7197	61.3647	0.793739	-98.553	54.2683	-10.6185	-68.3534	52.7657	19.3529	-54.3839	73.0923	-4.33488	-98.6659	73.9562	-13.0665	-66.5132	70.0773	13.6222	-53.8386	85.8075	45.5229	-120.532	99.0066	66.1017	-114.234	125.152	79.8913	-109.537	87.0287	
253	2.10833	98.525	-76.6899	73.7871	94.3474	-72.1012	46.0597	71.2981	-74.344	12.413	43.513	-76.3158	5.14114	36.5441	-97.3095	21.9132	18.3773	-68.9491	17.4158	34.9911	-50.9774	42.047	16.8895	-100.885	34.2949	0.19364	-66.4612	35.7463	29.5605	-52.6186	60.4192	-1.39575	-98.3053	53.9598	-8.1863	-69.1412	51.0002	20.4993	-54.6047	71.3164	-6.53925	-97.9782	76.6203	-11.9111	-67.5813	67.8525	15.0937	-53.592	84.1896	43.9488	-118.54	97.3034	69.2809	-114.853	121.976	80.5006	-110.454	87.3973	
254	2.11667	97.7429	-75.3247	77.2408	91.6701	-72.865	45.7618	72.7131	-74.7069	16.1008	44.9596	-77.2081	7.62453	32.3298	-96.4564	21.8717	17.9316	-70.7494	19.3112	40.9627	-51.6261	45.1413	17.3414	-101.058	34.2762	2.17651	-66.2901	33.7954	31.2152	-54.8177	61.8242	-0.28183	-97.5538	52.3965	-6.65995	-66.073	49.7225	22.3869	-55.3529	71.8457	-8.36585	-98.1692	75.9697	-6.9294	-64.6842	65.6808	16.8288	-56.8512	81.9412	44.3927	-119.696	100.175	67.9798	-114.972	119.44	82.5378	-109.054	86.4387	
255	2.125	100.494	-74.3306	77.0573	92.4142	-74.6862	42.9814	75.2324	-74.6553	11.6644	47.5856	-77.9573	-0.726571	37.0968	-96.9539	23.0058	19.5756	-67.385	17.9252	41.0338	-51.4673	46.2831	15.5128	-99.958	33.501	2.3922	-66.6034	34.2309	28.2803	-54.1983	60.0322	2.27287	-98.0844	53.7161	-5.70864	-63.5481	51.5495	21.2916	-54.5986	70.1471	-7.69048	-98.2408	75.5584	-9.27975	-64.9037	67.0926	16.7723	-55.7709	80.4068	43.8219	-118.626	96.1003	69.3486	-113.671	123.165	82.4389	-107.738	83.8085	
256	2.13333	97.2752	-77.0298	74.4224	92.2408	-73.6149	44.0637	75.4869	-75.2018	13.4354	53.715	-75.6021	0.768446	34.1436	-95.8452	22.9098	19.4734	-68.3389	16.7611	38.4551	-51.4325	44.7708	15.587	-102.182	36.5551	1.7434	-67.0588	35.1102	32.1273	-54.4667	59.8999	1.95018	-95.4784	48.2269	-7.55135	-66.5652	52.2452	21.1183	-53.4624	70.2208	-8.06391	-97.1303	72.2907	-6.75709	-64.9344	65.3471	15.4717	-54.3665	80.1969	47.4363	-118.795	94.763	69.1452	-115.424	119.561	82.1355	-110.373	87.7206	
257	2.14167	102.04	-74.7259	75.2199	93.2751	-72.8535	46.1387	79.9898	-72.3173	13.2465	56.3757	-75.7832	-2.30469	36.6881	-94.4215	19.8098	19.099	-66.6763	21.9195	38.9239	-52.0364	45.3572	17.7506	-100.82	31.7283	3.75965	-67.8958	32.5363	31.6257	-55.2088	60.8063	3.23576	-97.0599	48.9171	-5.25435	-65.7227	50.5363	22.093	-53.7198	69.0869	-5.34386	-97.4559	73.2471	-9.21289	-67.0983	66.1062	18.3428	-54.9079	82.9226	44.9209	-118.933	93.9702	68.4335	-115.722	120.376	83.191	-108.638	86.7588	
258	2.15	100.95	-73.7278	76.6571	97.0563	-72.9283	41.4613	81.5067	-72.8901	12.4177	59.6673	-74.6013	-6.79199	37.0722	-97.0959	22.5996	19.7619	-66.5829	21.0888	36.9546	-53.1065	45.444	16.3953	-101.681	35.1871	5.82144	-64.6858	32.36	32.656	-55.3331	60.8544	-0.628008	-97.0834	50.9345	-4.778	-65.3251	49.5387	23.7403	-55.3857	72.3056	-1.05043	-98.8534	74.1626	-9.49909	-65.1581	67.8969	19.7805	-55.9324	81.0133	48.6452	-120.29	94.6075	66.2233	-115.103	121.628	84.9929	-109.815	83.9475	
259	2.15833	102.488	-73.9791	75.2677	95.7677	-71.8201	44.3564	83.3587	-71.8134	13.1943	65.5506	-71.1301	-6.70439	39.0368	-94.632	18.2826	22.939	-66.7585	18.1027	42.5232	-51.2681	44.8886	15.822	-100.471	32.5654	7.33182	-66.7458	30.2647	28.4079	-54.3449	61.1275	6.28364	-99.5302	48.8207	-5.12356	-70.4203	48.3428	22.5225	-54.7927	67.5526	-4.54348	-99.8296	72.1572	-6.55643	-65.0132	66.0194	18.3277	-54.9079	80.1095	46.9878	-121.42	93.6513	68.9958	-113.388	123.635	88.4888	-106.446	84.2078	
260	2.16667	104.457	-70.1588	74.9638	99.4243	-66.6107	46.2582	87.6491	-66.8582	11.0029	69.1063	-67.4472	-11.1436	37.7706	-95.126	20.0519	20.7516	-70.2473	18.7388	41.5524	-52.5733	45.4147	22.301	-103.346	33.401	4.76712	-70.173	30.1574	29.3392	-54.0217	58.9267	7.04132	-99.8116	47.9511	-3.00709	-69.42	46.8979	22.9678	-55.4253	69.5067	-2.89294	-101.789	71.0377	-8.02341	-69.9207	65.8201	17.2051	-57.5641	81.2054	51.4574	-118.7	95.5269	73.3595	-112.755	120.496	86.3399	-108.069	81.9752	
261	2.175	102.916	-67.0971	76.2836	97.7263	-62.6507	42.4953	83.0071	-62.3985	9.94485	63.5685	-63.5054	-6.87991	41.9947	-94.0274	18.872	22.9965	-68.5924	13.8698	37.1979	-52.338	44.8536	23.6258	-102.8	28.4152	3.98375	-72.7864	32.1048	30.438	-54.7742	59.2954	7.15607	-102.372	46.9689	-5.61525	-75.3013	48.4447	23.0787	-57.4273	69.6851	4.48568	-106.328	72.5429	-8.80614	-74.1035	65.9301	20.7261	-60.8619	79.0226	55.0536	-120.447	91.1989	78.3864	-111.53	116.032	90.4657	-102.791	81.3408	
